<?xml version="1.0" encoding="utf-8"?>
<!-- Generator: Adobe Illustrator 16.2.0, SVG Export Plug-In . SVG Version: 6.00 Build 0)  -->
<!DOCTYPE svg PUBLIC "-//W3C//DTD SVG 1.1//EN" "http://www.w3.org/Graphics/SVG/1.1/DTD/svg11.dtd">
<svg version="1.1" id="Layer_1" xmlns="http://www.w3.org/2000/svg" xmlns:xlink="http://www.w3.org/1999/xlink" x="0px" y="0px"
	 width="361.5px" height="286.121px" viewBox="0 0 361.5 286.121" enable-background="new 0 0 361.5 286.121" xml:space="preserve">
<g id="Layer_1_1_">
	<g>
		<g>
			<g id="XMLID_2444_">
				<g id="XMLID_2452_">
					<rect id="XMLID_2458_" x="116.836" y="65.051" fill="#95C8EC" width="169.244" height="103.848"/>
					<rect id="XMLID_2457_" x="116.836" y="57.9" fill="#ECEFF0" width="169.244" height="7.151"/>
					<g id="XMLID_2453_">
						<path id="XMLID_2456_" fill="#BDDDF4" d="M272.296,62.563h-0.207c-0.726,0-1.45-0.622-1.45-1.451v-0.207
							c0-0.726,0.62-1.451,1.45-1.451h0.207c0.726,0,1.452,0.622,1.452,1.451v0.207C273.644,61.943,273.021,62.563,272.296,62.563z"
							/>
						<path id="XMLID_2455_" fill="#BDDDF4" d="M276.96,62.563h-0.207c-0.727,0-1.45-0.622-1.45-1.451v-0.207
							c0-0.726,0.621-1.451,1.45-1.451h0.207c0.726,0,1.452,0.622,1.452,1.451v0.207C278.412,61.943,277.79,62.563,276.96,62.563z"
							/>
						<path id="XMLID_2454_" fill="#BDDDF4" d="M281.728,62.563h-0.207c-0.726,0-1.451-0.622-1.451-1.451v-0.207
							c0-0.726,0.621-1.451,1.451-1.451h0.207c0.726,0,1.45,0.622,1.45,1.451v0.207C283.179,61.943,282.558,62.563,281.728,62.563z"
							/>
					</g>
					<rect x="122.433" y="70.544" fill="#A3D1EE" width="43.218" height="43.219"/>
					<rect x="169.279" y="70.544" fill="#A3D1EE" width="111.309" height="6.529"/>
					<rect x="169.279" y="80.287" fill="#A3D1EE" width="111.309" height="33.476"/>
					<rect x="169.279" y="117.908" fill="#A3D1EE" width="111.309" height="27.257"/>
					<rect x="169.279" y="149.519" fill="#A3D1EE" width="116.906" height="19.381"/>
					<rect x="122.433" y="117.908" fill="#A3D1EE" width="43.218" height="50.991"/>
					<path fill="#FFFFFF" d="M144.094,82.049c-5.596,0-10.157,4.56-10.157,10.156c0,5.597,4.56,10.157,10.157,10.157
						c5.597,0,10.157-4.56,10.157-10.157C154.251,86.504,149.691,82.049,144.094,82.049z M144.094,85.055
						c1.658,0,3.005,1.347,3.005,3.005s-1.348,3.006-3.005,3.006s-3.005-1.347-3.005-3.006S142.332,85.055,144.094,85.055z
						 M144.094,99.46c-2.591,0-4.768-1.348-6.115-3.316c0-2.072,4.042-3.108,6.115-3.108c2.072,0,6.114,1.139,6.114,3.108
						C148.861,98.217,146.581,99.46,144.094,99.46z"/>
					<path fill="none" d="M131.864,79.976h24.459v24.459h-24.459V79.976z"/>
				</g>
				<g id="XMLID_2445_">
					<rect id="XMLID_2451_" x="79.422" y="78.524" fill="#BDDDF4" width="188.522" height="115.558"/>
					<rect id="XMLID_2450_" x="79.422" y="70.441" fill="#ECEFF0" width="188.522" height="7.979"/>
					<g id="XMLID_2446_">
						<path id="XMLID_2449_" fill="#BDDDF4" d="M252.398,75.624L252.398,75.624c-0.933,0-1.763-0.726-1.763-1.763l0,0
							c0-0.932,0.726-1.762,1.763-1.762l0,0c0.932,0,1.762,0.725,1.762,1.762l0,0C254.057,74.897,253.33,75.624,252.398,75.624z"/>
						<path id="XMLID_2448_" fill="#BDDDF4" d="M257.683,75.624L257.683,75.624c-0.932,0-1.762-0.726-1.762-1.763l0,0
							c0-0.932,0.725-1.762,1.762-1.762l0,0c0.934,0,1.762,0.725,1.762,1.762l0,0C259.342,74.897,258.616,75.624,257.683,75.624z"/>
						<path id="XMLID_2447_" fill="#BDDDF4" d="M262.969,75.624L262.969,75.624c-0.932,0-1.762-0.726-1.762-1.763l0,0
							c0-0.932,0.727-1.762,1.762-1.762l0,0c0.934,0,1.763,0.725,1.763,1.762l0,0C264.627,74.897,263.902,75.624,262.969,75.624z"/>
					</g>
				</g>
				<rect x="79.422" y="193.979" fill="#81C784" width="188.522" height="5.597"/>
				<path fill="none" d="M79.422,100.496h57.313v57.313H79.422V100.496L79.422,100.496z"/>
				<g opacity="0.64">
					<rect x="89.889" y="108.374" fill="#FFFFFF" width="24.459" height="3.42"/>
					<rect x="118.495" y="108.374" fill="#FFFFFF" width="24.459" height="3.42"/>
					<rect x="147.1" y="108.374" fill="#FFFFFF" width="24.459" height="3.42"/>
					<rect x="175.704" y="108.374" fill="#FFFFFF" width="24.46" height="3.42"/>
					<rect x="204.309" y="108.374" fill="#FFFFFF" width="24.459" height="3.42"/>
					<rect x="232.914" y="108.374" fill="#FFFFFF" width="24.459" height="3.42"/>
					<rect x="89.889" y="115.938" fill="#FFFFFF" width="24.459" height="3.421"/>
					<rect x="118.495" y="115.938" fill="#FFFFFF" width="24.459" height="3.421"/>
					<rect x="147.1" y="115.938" fill="#FFFFFF" width="24.459" height="3.421"/>
					<rect x="175.704" y="115.938" fill="#FFFFFF" width="24.46" height="3.421"/>
					<rect x="204.309" y="115.938" fill="#FFFFFF" width="24.459" height="3.421"/>
					<rect x="232.914" y="115.938" fill="#FFFFFF" width="24.459" height="3.421"/>
					<rect x="89.889" y="123.504" fill="#FFFFFF" width="24.459" height="3.421"/>
					<rect x="118.495" y="123.504" fill="#FFFFFF" width="24.459" height="3.421"/>
					<rect x="147.1" y="123.504" fill="#FFFFFF" width="24.459" height="3.421"/>
					<rect x="175.704" y="123.504" fill="#FFFFFF" width="24.46" height="3.421"/>
					<rect x="204.309" y="123.504" fill="#FFFFFF" width="24.459" height="3.421"/>
					<rect x="232.914" y="123.504" fill="#FFFFFF" width="24.459" height="3.421"/>
					<rect x="89.889" y="131.174" fill="#FFFFFF" width="24.459" height="3.419"/>
					<rect x="118.495" y="131.174" fill="#FFFFFF" width="24.459" height="3.419"/>
					<rect x="147.1" y="131.174" fill="#FFFFFF" width="24.459" height="3.419"/>
					<rect x="175.704" y="131.174" fill="#FFFFFF" width="24.46" height="3.419"/>
					<rect x="204.309" y="131.174" fill="#FFFFFF" width="24.459" height="3.419"/>
					<rect x="232.914" y="131.174" fill="#FFFFFF" width="24.459" height="3.419"/>
					<rect x="89.889" y="138.74" fill="#FFFFFF" width="24.459" height="3.42"/>
					<rect x="118.495" y="138.74" fill="#FFFFFF" width="24.459" height="3.42"/>
					<rect x="147.1" y="138.74" fill="#FFFFFF" width="24.459" height="3.42"/>
					<rect x="175.704" y="138.74" fill="#FFFFFF" width="24.46" height="3.42"/>
					<rect x="204.309" y="138.74" fill="#FFFFFF" width="24.459" height="3.42"/>
					<rect x="232.914" y="138.74" fill="#FFFFFF" width="24.459" height="3.42"/>
					<rect x="89.889" y="146.305" fill="#FFFFFF" width="24.459" height="3.421"/>
					<rect x="118.495" y="146.305" fill="#FFFFFF" width="24.459" height="3.421"/>
					<rect x="147.1" y="146.305" fill="#FFFFFF" width="24.459" height="3.421"/>
					<rect x="175.704" y="146.305" fill="#FFFFFF" width="24.46" height="3.421"/>
					<rect x="204.309" y="146.305" fill="#FFFFFF" width="24.459" height="3.421"/>
					<rect x="232.914" y="146.305" fill="#FFFFFF" width="24.459" height="3.421"/>
					<rect x="89.889" y="153.975" fill="#FFFFFF" width="24.459" height="3.419"/>
					<rect x="118.495" y="153.975" fill="#FFFFFF" width="24.459" height="3.419"/>
					<rect x="147.1" y="153.975" fill="#FFFFFF" width="24.459" height="3.419"/>
					<rect x="175.704" y="153.975" fill="#FFFFFF" width="24.46" height="3.419"/>
					<rect x="204.309" y="153.975" fill="#FFFFFF" width="24.459" height="3.419"/>
					<rect x="232.914" y="153.975" fill="#FFFFFF" width="24.459" height="3.419"/>
					<rect x="89.889" y="161.54" fill="#FFFFFF" width="24.459" height="3.421"/>
					<rect x="118.495" y="161.54" fill="#FFFFFF" width="24.459" height="3.421"/>
					<rect x="147.1" y="161.54" fill="#FFFFFF" width="24.459" height="3.421"/>
					<rect x="175.704" y="161.54" fill="#FFFFFF" width="24.46" height="3.421"/>
					<rect x="204.309" y="161.54" fill="#FFFFFF" width="24.459" height="3.421"/>
					<rect x="232.914" y="161.54" fill="#FFFFFF" width="24.459" height="3.421"/>
					<rect x="89.889" y="169.105" fill="#FFFFFF" width="24.459" height="3.421"/>
					<rect x="118.495" y="169.105" fill="#FFFFFF" width="24.459" height="3.421"/>
					<rect x="147.1" y="169.105" fill="#FFFFFF" width="24.459" height="3.421"/>
					<rect x="175.704" y="169.105" fill="#FFFFFF" width="24.46" height="3.421"/>
					<rect x="204.309" y="169.105" fill="#FFFFFF" width="24.459" height="3.421"/>
					<rect x="232.914" y="169.105" fill="#FFFFFF" width="24.459" height="3.421"/>
					<rect x="89.889" y="176.777" fill="#FFFFFF" width="24.459" height="3.419"/>
					<rect x="118.495" y="176.777" fill="#FFFFFF" width="24.459" height="3.419"/>
					<rect x="147.1" y="176.777" fill="#FFFFFF" width="24.459" height="3.419"/>
					<rect x="175.704" y="176.777" fill="#FFFFFF" width="24.46" height="3.419"/>
					<rect x="204.309" y="176.777" fill="#FFFFFF" width="24.459" height="3.419"/>
					<rect x="232.914" y="176.777" fill="#FFFFFF" width="24.459" height="3.419"/>
					<rect x="89.889" y="184.342" fill="#FFFFFF" width="24.459" height="3.421"/>
					<rect x="118.495" y="184.342" fill="#FFFFFF" width="24.459" height="3.421"/>
					<rect x="147.1" y="184.342" fill="#FFFFFF" width="24.459" height="3.421"/>
					<rect x="175.704" y="184.342" fill="#FFFFFF" width="24.46" height="3.421"/>
					<rect x="204.309" y="184.342" fill="#FFFFFF" width="24.459" height="3.421"/>
					<rect x="232.914" y="184.342" fill="#FFFFFF" width="24.459" height="3.421"/>
				</g>
			</g>
			<g id="XMLID_2433_">
				<g id="XMLID_2434_">
					<path id="XMLID_2441_" fill="#ECEFF0" d="M46.569,60.388l-1.141-0.415c0.104-0.829,0.104-1.658-0.104-2.384l1.037-0.518
						c0.622-0.312,0.932-1.037,0.622-1.763l-0.622-1.347c-0.312-0.622-1.037-0.932-1.763-0.622l-1.036,0.519
						c-0.519-0.622-1.14-1.141-1.762-1.658l0.415-1.142c0.207-0.724-0.104-1.449-0.83-1.658l-1.348-0.518
						c-0.622-0.207-1.45,0.103-1.658,0.828l-0.414,1.141c-0.829-0.104-1.658-0.104-2.384,0.104l-0.519-1.037
						c-0.311-0.622-1.036-0.933-1.762-0.622l-1.347,0.622c-0.621,0.312-0.933,1.141-0.621,1.764l0.518,1.037
						c-0.622,0.518-1.14,1.14-1.658,1.761l-1.141-0.414c-0.622-0.208-1.451,0.103-1.658,0.828l-0.414,1.244
						c-0.104,0.31-0.104,0.726,0,1.037c0.103,0.31,0.414,0.519,0.725,0.726l1.14,0.414c-0.104,0.83-0.104,1.659,0.104,2.385
						l-1.036,0.518c-0.623,0.31-0.933,1.036-0.623,1.761l0.622,1.348c0.31,0.622,1.036,0.932,1.762,0.622l1.036-0.519
						c0.519,0.622,1.14,1.14,1.763,1.658l-0.416,1.14c-0.103,0.312-0.103,0.725,0,1.037c0.104,0.311,0.416,0.518,0.726,0.725
						l1.347,0.518c0.312,0.104,0.726,0.104,1.037,0c0.311-0.103,0.518-0.414,0.725-0.726l0.416-1.14
						c0.829,0.104,1.658,0.104,2.383-0.103l0.519,1.036c0.31,0.622,1.036,0.932,1.762,0.622l1.348-0.622
						c0.622-0.31,0.933-1.036,0.622-1.762l-0.519-1.037c0.622-0.519,1.14-1.14,1.658-1.762l1.14,0.415
						c0.311,0.103,0.725,0.103,1.036,0c0.311-0.103,0.519-0.415,0.726-0.725l0.518-1.348C47.605,61.424,47.294,60.699,46.569,60.388
						z M39.314,63.911c-0.726,0.311-1.452,0.519-2.176,0.519c-2.073,0-3.835-1.14-4.768-3.006c-1.244-2.592-0.104-5.7,2.591-6.943
						c0.726-0.311,1.451-0.519,2.176-0.519c2.073,0,3.834,1.14,4.767,3.006C43.044,59.559,41.905,62.668,39.314,63.911z"/>
					<path id="XMLID_2438_" fill="#ECEFF0" d="M59.627,64.222l-0.622-0.207c0-0.415,0-0.932,0-1.347l0.622-0.311
						c0.414-0.207,0.518-0.622,0.311-0.932L59.627,60.7c-0.208-0.414-0.622-0.519-0.933-0.311l-0.622,0.31
						c-0.311-0.311-0.622-0.622-1.036-0.931l0.207-0.623c0.104-0.414-0.104-0.83-0.415-0.932L56,57.797
						c-0.415-0.103-0.829,0.104-0.933,0.416l-0.207,0.621c-0.415,0-0.933,0-1.348,0l-0.311-0.621
						c-0.207-0.416-0.622-0.519-0.932-0.311l-0.726,0.311c-0.415,0.207-0.518,0.621-0.311,0.932l0.311,0.623
						c-0.311,0.309-0.622,0.621-0.933,1.036l-0.622-0.207c-0.416-0.103-0.83,0.104-0.934,0.415l-0.31,0.726
						c-0.104,0.207-0.104,0.415,0,0.518c0.104,0.208,0.208,0.311,0.415,0.416l0.623,0.206c0,0.416,0,0.933,0,1.348l-0.623,0.31
						c-0.415,0.208-0.518,0.623-0.311,0.933l0.311,0.726c0.207,0.414,0.623,0.518,0.933,0.31l0.622-0.31
						c0.311,0.31,0.622,0.621,1.036,0.931l-0.207,0.623c-0.104,0.206-0.104,0.414,0,0.519c0.104,0.206,0.207,0.31,0.415,0.415
						l0.726,0.31c0.207,0.104,0.414,0.104,0.518,0c0.104-0.102,0.311-0.207,0.415-0.415l0.207-0.623c0.415,0,0.933,0,1.348,0
						l0.311,0.623c0.208,0.415,0.622,0.519,0.933,0.312l0.726-0.312c0.415-0.206,0.519-0.623,0.311-0.933l-0.311-0.621
						c0.311-0.312,0.622-0.623,0.933-1.037l0.622,0.207c0.207,0.103,0.415,0.103,0.519,0c0.207-0.104,0.311-0.207,0.415-0.416
						l0.311-0.726C60.145,64.741,59.938,64.327,59.627,64.222z M55.585,66.088c-0.415,0.208-0.829,0.311-1.243,0.311
						c-1.141,0-2.177-0.622-2.591-1.658c-0.622-1.451,0-3.214,1.451-3.835c0.416-0.207,0.83-0.311,1.244-0.311
						c1.141,0,2.177,0.622,2.591,1.658C57.658,63.705,57.036,65.466,55.585,66.088z"/>
					<path id="XMLID_2435_" fill="#ECEFF0" d="M73.411,41.008l-1.866-0.726c0.104-1.347,0.104-2.695-0.104-4.042l1.762-0.829
						c1.141-0.518,1.555-1.865,1.037-2.901l-1.037-2.28c-0.517-1.14-1.865-1.554-2.902-1.037l-1.762,0.829
						c-0.829-1.037-1.865-1.97-3.005-2.798l0.726-1.866c0.415-1.141-0.208-2.384-1.347-2.798l-2.28-0.829
						c-1.14-0.415-2.383,0.207-2.799,1.347l-0.725,1.865c-1.451-0.208-2.798-0.208-4.145,0.102l-0.83-1.761
						c-0.518-1.141-1.865-1.555-2.902-1.037l-2.279,1.038c-1.141,0.518-1.555,1.866-1.037,2.901l0.829,1.762
						c-1.037,0.829-1.969,1.866-2.799,3.006l-1.865-0.725c-1.14-0.415-2.383,0.207-2.798,1.348l-0.83,2.279
						c-0.207,0.519-0.207,1.141,0.104,1.658c0.207,0.519,0.726,0.933,1.243,1.141l1.865,0.725c-0.104,1.347-0.104,2.694,0.104,4.041
						l-1.761,0.83c-1.141,0.518-1.555,1.866-1.037,2.901l1.037,2.28c0.517,1.141,1.865,1.554,2.902,1.036l1.762-0.829
						c0.829,1.037,1.865,1.97,3.005,2.799l-0.726,1.865c-0.208,0.519-0.208,1.14,0.104,1.658c0.208,0.519,0.726,0.932,1.244,1.14
						l2.28,0.829c0.518,0.207,1.14,0.207,1.658-0.104c0.518-0.207,0.933-0.726,1.14-1.243l0.726-1.866
						c1.348,0.103,2.695,0.103,4.042-0.104l0.829,1.762c0.518,1.141,1.865,1.555,2.902,1.037l2.28-1.037
						c1.141-0.518,1.555-1.864,1.036-2.9l-0.829-1.764c1.036-0.828,1.969-1.865,2.798-3.005l1.865,0.725
						c0.519,0.207,1.14,0.207,1.659-0.104c0.518-0.208,0.932-0.725,1.14-1.244l0.829-2.28
						C75.069,42.769,74.551,41.421,73.411,41.008z M61.182,46.812c-1.141,0.518-2.384,0.828-3.627,0.828
						c-3.421,0-6.529-1.969-7.98-5.079c-1.969-4.353-0.104-9.637,4.249-11.607c1.141-0.519,2.384-0.829,3.628-0.829
						c3.42,0,6.529,1.969,7.979,5.078C67.503,39.556,65.638,44.842,61.182,46.812z"/>
				</g>
			</g>
			<path fill="none" d="M80.562,90.133h24.874v24.873H80.562V90.133z"/>
			<path fill="#FFFFFF" d="M95.486,96.973l-4.767-4.768l4.767-4.767l-1.451-1.451l-6.219,6.218l6.219,6.219L95.486,96.973z
				 M100.876,96.973l4.767-4.768l-4.767-4.767l1.452-1.451l6.217,6.218l-6.217,6.219L100.876,96.973z"/>
			<g>
				<g id="XMLID_2471_">
					<path id="XMLID_2480_" fill="#57A0D7" d="M211.461,175.324L211.461,175.324c3.937-2.487,5.078-7.773,2.486-11.607
						l-19.691-30.471c-2.487-3.938-7.671-4.974-11.608-2.487l0,0c-3.938,2.487-4.975,7.669-2.488,11.607l19.692,30.471
						C202.34,176.777,207.521,177.916,211.461,175.324L211.461,175.324z"/>
					<path id="XMLID_2479_" fill="#95C8EC" d="M212.082,171.801c1.452-0.931,1.97-3.006,0.933-4.457l-19.692-30.471
						c-0.932-1.449-3.005-1.968-4.455-0.932c-1.555,0.932-1.971,3.006-0.933,4.457l19.691,30.472
						C208.455,172.319,210.527,172.734,212.082,171.801L212.082,171.801z"/>
					<g id="XMLID_2477_">
						<path id="XMLID_2478_" fill="#3D82C4" d="M185.342,134.699c1.969-1.244,2.488-3.835,1.243-5.805l-4.144-6.218
							c-1.245-1.969-3.835-2.488-5.805-1.243l0,0c-1.968,1.243-2.487,3.835-1.244,5.803l4.146,6.219
							C180.783,135.424,183.373,135.941,185.342,134.699L185.342,134.699z"/>
					</g>
					<path fill="#57A7DB" d="M129.999,91.999c1.866-8.602,6.943-15.962,14.302-20.625c7.359-4.767,16.168-6.322,24.667-4.458
						c17.724,3.836,28.914,21.351,25.185,38.968c-1.866,8.602-6.943,15.961-14.406,20.729l0,0
						c-7.359,4.767-16.064,6.321-24.666,4.457c-8.603-1.866-15.857-6.944-20.624-14.302
						C129.792,109.306,128.236,100.496,129.999,91.999z M141.606,112.104c3.524,5.492,9.017,9.224,15.339,10.675
						c6.321,1.347,12.851,0.207,18.344-3.317l0,0c5.493-3.523,9.329-9.017,10.675-15.339c2.798-13.162-5.597-26.221-18.656-29.019
						c-6.321-1.347-12.851-0.208-18.344,3.316c-5.493,3.523-9.327,9.017-10.674,15.339
						C136.838,100.083,138.083,106.611,141.606,112.104z"/>
					<g id="XMLID_2473_" opacity="0.71" enable-background="new    ">
						<g>
							<path id="XMLID_2474_" opacity="0.71" fill="#BDDDF4" enable-background="new    " d="M148.964,78.421
								c5.493-3.523,12.023-4.663,18.344-3.316c13.163,2.797,21.558,15.857,18.656,29.019c-1.348,6.427-5.182,11.815-10.675,15.339
								l0,0c-5.493,3.523-12.023,4.664-18.344,3.317c-6.323-1.347-11.815-5.183-15.339-10.675
								c-3.523-5.493-4.768-12.022-3.316-18.344C139.637,87.335,143.471,81.945,148.964,78.421L148.964,78.421z"/>
						</g>
					</g>
					<path id="XMLID_2472_" opacity="0.3" fill="#F1F2F2" enable-background="new    " d="M141.606,112.104
						c-3.523-5.493-4.768-12.022-3.316-18.344c0.415-1.762,0.933-3.524,1.762-5.183c1.762-2.384,3.938-4.353,6.426-6.01
						c5.493-3.524,12.022-4.665,18.343-3.317c13.162,2.799,21.558,15.858,18.655,29.019c-0.414,1.763-0.934,3.524-1.762,5.183
						c-1.762,2.384-3.938,4.354-6.426,6.011l0,0c-5.493,3.523-12.023,4.664-18.344,3.317
						C150.622,121.433,145.13,117.597,141.606,112.104z"/>
				</g>
				<g id="XMLID_2460_">
					<g id="XMLID_2463_">
						<g id="XMLID_2464_">
							<g id="XMLID_2465_">
								<path id="XMLID_2470_" fill="#FBE4D4" d="M228.457,158.535c-2.695-5.701-6.011-5.701-6.011-5.701
									c-2.799-9.431-7.463-9.95-7.463-9.95c-2.175-8.291-6.943-6.84-6.943-6.84c-0.726-10.882-6.012-12.954-9.432-10.985
									c-1.244,0.621-2.176,1.762-2.695,3.212c-1.865,5.493-3.005,25.599-4.871,25.599c-1.864,0-7.979-6.529-7.979-6.529
									s-7.463,19.07-5.286,24.251c2.177,5.183,18.967,27.776,18.967,27.776s0.726,0.103,1.865,0.103
									c5.804,0.52,23.629,1.867,25.391,1.038c2.178-1.038,6.531-21.144,6.945-25.082
									C231.462,171.594,231.151,164.235,228.457,158.535z"/>
								<g id="XMLID_2466_">
									<polygon id="XMLID_2468_" fill="#95C8EC" points="200.37,202.685 189.488,202.685 189.488,266.528 200.37,266.528 
										237.369,266.528 237.369,202.685 									"/>
									<polygon id="XMLID_2467_" fill="#E8E8E8" points="201.718,198.333 193.012,198.333 193.012,202.685 201.718,202.685 
										231.151,202.685 231.151,198.333 									"/>
								</g>
							</g>
						</g>
					</g>
					<polygon id="XMLID_2461_" fill="#58A6DA" points="194.98,202.685 189.488,202.685 189.488,266.528 194.98,266.528 
						213.43,266.528 213.43,202.685 					"/>
				</g>
			</g>
			<g>
				<g>
					<g>
						<path fill="#81C784" d="M153.214,85.987c0.208,0,4.146,0.829,4.974,5.286c-1.037,1.14-1.761,2.798-1.761,4.56l0,0h11.296l0,0
							c0-1.762-0.726-3.42-1.763-4.56c0.83-4.457,4.871-5.286,4.975-5.286c0.415-0.104,0.622-0.415,0.519-0.83
							c-0.104-0.414-0.415-0.621-0.829-0.518c0,0-4.664,0.932-5.907,5.701c-0.83-0.519-1.763-0.726-2.695-0.726
							c-1.036,0-1.97,0.311-2.696,0.726c-1.347-4.768-5.907-5.701-5.907-5.701c-0.415-0.104-0.726,0.206-0.829,0.518
							C152.592,85.572,152.8,85.882,153.214,85.987z"/>
						<path fill="#81C784" d="M174.875,91.48c-0.519-0.104-1.036,0.103-1.14,0.621c0,0-1.14,3.628-1.347,4.354
							c-0.519,0.103-1.968,0.518-3.005,0.829c0-0.207-0.104-0.311-0.104-0.518h-14.302c0,0.206-0.104,0.31-0.104,0.518
							c-1.037-0.311-2.487-0.726-3.005-0.829c-0.208-0.83-1.348-4.354-1.348-4.354c-0.104-0.518-0.622-0.725-1.14-0.621
							c-0.519,0.103-0.726,0.621-0.622,1.139l1.659,5.39l4.145,1.141c0,0.415,0,0.829,0,1.141c0,0.519,0,0.931,0.104,1.45
							l-4.145,1.866l-1.347,7.359c-0.104,0.519,0.208,0.932,0.726,1.036c0.519,0.104,0.934-0.207,1.036-0.724
							c0,0,1.037-5.597,1.141-6.427c0.415-0.207,1.762-0.829,2.902-1.244c1.036,4.249,3.835,7.254,7.151,7.254
							c3.316,0,6.218-3.005,7.151-7.254c1.14,0.519,2.487,1.14,2.901,1.244c0.104,0.829,1.141,6.427,1.141,6.427
							c0.104,0.518,0.519,0.828,1.036,0.724c0.519-0.104,0.83-0.518,0.725-1.036l-1.348-7.359l-4.146-1.866
							c0-0.519,0.103-0.931,0.103-1.45c0-0.416,0-0.83,0-1.141l4.146-1.141l1.658-5.39C175.6,92.205,175.394,91.688,174.875,91.48z"
							/>
					</g>
				</g>
			</g>
		</g>
		<g>
			<path fill="#D0D8DC" d="M328.987,243.935L328.987,243.935l-15.96-16.167c-0.208-0.208-0.208-0.416,0-0.623l7.048-7.048
				c0,0,0,0,0.104-0.103l6.529-4.146c0.103,0,0.103-0.104,0.103-0.208l2.385-4.353c0.104-0.207,0.104-0.413-0.104-0.518
				l-2.591-2.591c-0.104-0.104-0.414-0.208-0.519-0.104l-4.353,2.385c-0.104,0-0.104,0.104-0.208,0.104l-4.146,6.529
				c0,0,0,0.104-0.104,0.104l-7.049,7.048c-0.206,0.206-0.517,0.206-0.621,0l-6.943-6.944c-0.104-0.104-0.104-0.207-0.104-0.312
				v-9.224c0-0.206-0.104-0.414-0.311-0.414l-9.328-2.488c-0.207,0-0.311,0-0.415,0.104l-0.518,0.519
				c-0.208,0.206-0.208,0.518,0,0.62l4.664,4.664c0.207,0.207,0.207,0.416,0,0.623l-4.562,4.56c-0.207,0.207-0.413,0.207-0.621,0
				l-4.664-4.665c-0.207-0.206-0.415-0.206-0.622,0l-0.517,0.519c-0.104,0.105-0.209,0.312-0.104,0.417l2.487,9.326
				c0.104,0.208,0.206,0.312,0.414,0.312h9.121l-0.104,0.103l7.15,7.152c0.208,0.206,0.208,0.414,0,0.621l-2.177,2.177
				c-0.208,0.207-0.414,0.207-0.622,0l-1.14-0.933c-0.207-0.208-0.415-0.208-0.622,0l-2.176,2.177c-0.208,0.206-0.208,0.518,0,0.621
				l0.104,0.104c0.208,0.207,0.208,0.622-0.104,0.726c-2.695,1.451-8.084,6.943-9.639,9.638c-0.104,0.312-0.519,0.312-0.726,0.104
				l-0.104-0.104c-0.206-0.206-0.414-0.206-0.622,0l-2.176,2.177c-0.207,0.207-0.207,0.416,0,0.622l5.804,5.804
				c0.208,0.207,0.414,0.207,0.623,0l2.176-2.176c0.206-0.207,0.206-0.52,0-0.622l-0.104-0.103
				c-0.208-0.208-0.208-0.623,0.104-0.727c2.694-1.45,8.084-6.942,9.639-9.638c0.104-0.311,0.518-0.311,0.726-0.104l0.103,0.104
				c0.208,0.207,0.519,0.207,0.623,0l2.176-2.177c0.208-0.206,0.208-0.414,0-0.622l-1.139-1.139c-0.209-0.209-0.209-0.416,0-0.623
				l2.072-2.072c0.207-0.207,0.519-0.207,0.621,0l15.96,16.063l0,0c1.348,1.348,3.628,1.348,4.976,0
				C330.336,247.563,330.336,245.282,328.987,243.935z M327.641,247.563c-0.622,0.622-1.556,0.622-2.177,0
				c-0.622-0.623-0.622-1.556,0-2.177c0.621-0.622,1.658-0.622,2.177,0C328.263,245.904,328.263,246.939,327.641,247.563z"/>
		</g>
		<g>
			<g>
				<path fill="#BDDDF4" d="M65.224,202.79c-5.804,0-10.571,4.664-10.571,10.571c0,5.908,4.664,10.572,10.571,10.572
					s10.571-4.664,10.571-10.572C75.795,207.454,71.027,202.79,65.224,202.79z M62.943,219.787l-5.596-5.598l2.176-2.176l3.42,3.421
					l7.462-7.463l2.176,2.177L62.943,219.787z"/>
				<path fill="#BDDDF4" d="M32.37,218.129v-29.746h10.986v-10.984h20.831v24.044c0.311,0,0.726-0.104,1.037-0.104
					c0.622,0,1.243,0.104,1.865,0.208v-27.052h-25.6l-12.126,12.749v33.89h26.428c-0.726-0.829-1.347-1.865-1.762-2.902
					L32.37,218.129L32.37,218.129z M40.453,179.678v5.701h-5.389L40.453,179.678z"/>
				<rect x="35.789" y="196.467" fill="#BDDDF4" width="24.667" height="3.317"/>
				<path fill="#BDDDF4" d="M59.109,202.997h-23.32v3.316h19.692C56.414,204.967,57.658,203.826,59.109,202.997z"/>
				<path fill="#BDDDF4" d="M35.789,213.05h17.308c0-1.14,0.208-2.279,0.519-3.316H35.789V213.05z"/>
			</g>
		</g>
		<g>
			<g>
				<path fill="#BDDDF4" d="M327.952,47.952c-4.872,0-8.706,3.938-8.706,8.706c0,4.767,3.938,8.706,8.706,8.706
					c4.767,0,8.706-3.938,8.706-8.706C336.657,51.888,332.719,47.952,327.952,47.952z"/>
				<path fill="#BDDDF4" d="M300.694,60.595V35.825h9.12v-9.12h17.308v19.899c0.311,0,0.621,0,0.829,0
					c0.519,0,1.037,0.103,1.555,0.103V24.321H308.26l-10.053,10.571v28.087h21.971c-0.621-0.726-1.14-1.555-1.451-2.384
					L300.694,60.595L300.694,60.595z M307.327,28.777v4.664h-4.457L307.327,28.777z"/>
				<rect x="303.596" y="42.666" fill="#BDDDF4" width="20.521" height="2.695"/>
				<path fill="#BDDDF4" d="M322.873,48.055h-19.277v2.694h16.272C320.697,49.61,321.63,48.677,322.873,48.055z"/>
				<path fill="#BDDDF4" d="M303.596,56.346h14.407c0-0.934,0.206-1.866,0.414-2.695h-14.819v2.695H303.596z"/>
				<g>
					<path fill="#FFFFFF" d="M326.707,58.107v-0.518c0-0.415,0.104-0.829,0.311-1.243c0.208-0.311,0.52-0.726,1.037-1.141
						c0.519-0.311,0.83-0.622,1.036-0.933c0.209-0.207,0.209-0.519,0.209-0.725c0-0.311-0.104-0.519-0.312-0.726
						c-0.206-0.208-0.518-0.208-0.933-0.208c-0.726,0-1.555,0.208-2.487,0.726l-0.829-1.555c1.037-0.621,2.176-0.932,3.421-0.932
						c1.036,0,1.762,0.207,2.384,0.725c0.621,0.519,0.827,1.141,0.827,1.866c0,0.519-0.102,1.037-0.311,1.348
						c-0.205,0.416-0.723,0.829-1.346,1.347c-0.415,0.311-0.727,0.622-0.829,0.83c-0.104,0.207-0.207,0.415-0.207,0.726v0.414
						L326.707,58.107L326.707,58.107z M326.5,60.595c0-0.415,0.104-0.726,0.312-0.933c0.206-0.207,0.517-0.311,0.932-0.311
						s0.727,0.104,0.933,0.311c0.209,0.207,0.312,0.518,0.312,0.933s-0.103,0.726-0.312,0.932c-0.206,0.208-0.518,0.312-0.933,0.312
						s-0.726-0.104-0.932-0.312C326.604,61.321,326.5,61.009,326.5,60.595z"/>
				</g>
			</g>
		</g>
		<path fill="none" stroke="#ECEFF0" stroke-miterlimit="10" d="M50.403,223.828v6.944c0,4.56,3.627,8.187,8.188,8.187h67.159
			c4.56,0,8.188-3.627,8.188-8.187v-28.088"/>
		<path fill="none" stroke="#ECEFF0" stroke-miterlimit="10" d="M237.163,52.2v-2.072c0-4.25,3.421-7.67,7.669-7.67h47.364"/>
		<polygon fill="#ECEFF0" points="89.062,238.96 94.036,236.058 99.01,233.156 99.01,238.96 99.01,244.764 94.036,241.862 		"/>
	</g>
</g>
</svg>
